# xmcd CD database file
#
# Track frame offsets:
#	150
#	21148
#	50360
#	82897
#	107007
#	128570
#	150646
#	181732
#	211524
#	218367
#
# Disc length: 3304 seconds
#
# Revision: 0
# Processed by: cddbd v1.5.1PL0 Copyright (c) Steve Scherf et al.
# Submitted via: CDex 1.51
#
DISCID=6a0ce60a
DTITLE=Janek Gwizdala - Mystery to Me
DYEAR=2004
DGENRE=Jazz
TTITLE0=Mystery to Me
TTITLE1=Why?
TTITLE2=Joshua
TTITLE3=Darkness
TTITLE4=Time Stands Still
TTITLE5=P.K.
TTITLE6=Circles
TTITLE7=A.M.S.K.
TTITLE8=B's Song
TTITLE9=And Another Thing
EXTD=YEAR: 2004
EXTT0=
EXTT1=
EXTT2=
EXTT3=
EXTT4=
EXTT5=
EXTT6=
EXTT7=
EXTT8=
EXTT9=
PLAYORDER=
